<svg xmlns="http://www.w3.org/2000/svg" width="182" height="86" class="wdLeJ seLQm" style="border:1px solid red">
  <path d="M43.268 1.471c-11.206.54-22.788 3.669-31.596 10.734C-1.078 22.435-2.35 39.097 9.405 51.12c11.884 12.154 32.194 17.12 48.204 12.741 4.955-1.355 19.666-8.944 13.358-16.521-6.018-7.229-21.23-5.946-28.683-3.458-6.158 2.056-11.646 6.205-12.796 12.96-2.248 13.209 7.936 25.114 17.727 32.555 16.072 12.213 35.92 19.617 55.411 23.973 19.712 4.406 42.14 6.367 61.06-1.73 6.398-2.737 11.807-7.276 16.11-12.636.399-.497 1.542-2.033 1.164-1.52"/>
</svg>
